<?xml version="1.0" standalone="no"?>
<!DOCTYPE svg PUBLIC "-//W3C//DTD SVG 20010904//EN"
 "http://www.w3.org/TR/2001/REC-SVG-20010904/DTD/svg10.dtd">
<svg version="1.0" xmlns="http://www.w3.org/2000/svg"
 width="145.000000pt" height="145.000000pt" viewBox="0 0 145.000000 145.000000"
 preserveAspectRatio="xMidYMid meet">
<metadata>
Created by potrace 1.14, written by Peter Selinger 2001-2017
</metadata>
<g transform="translate(0.000000,145.000000) scale(0.100000,-0.100000)"
fill="#000000" stroke="none">
<path d="M556 1305 c-9 -13 -16 -26 -16 -29 0 -2 -19 -35 -41 -72 -23 -38 -52
-87 -64 -109 -12 -22 -102 -179 -200 -350 -98 -170 -188 -326 -198 -345 -19
-35 -19 -35 3 -72 17 -29 25 -35 38 -28 9 5 43 20 75 34 31 14 81 37 110 50
28 13 75 34 102 46 28 12 77 35 110 51 l60 29 42 108 c96 244 138 341 144 334
7 -7 19 -35 69 -162 11 -30 30 -74 41 -97 10 -24 19 -46 19 -49 0 -3 6 -20 14
-37 8 -18 21 -48 29 -67 13 -33 26 -41 188 -114 96 -44 195 -89 220 -101 77
-36 74 -36 98 6 l22 39 -20 29 c-12 16 -21 32 -21 35 0 4 -18 36 -40 72 -22
36 -40 68 -40 69 0 2 -30 55 -67 117 -36 62 -71 122 -77 133 -6 11 -74 129
-151 263 l-139 242 -147 0 c-145 0 -147 0 -163 -25z"/>
<path d="M700 453 c-15 -5 -327 -139 -405 -173 -22 -9 -72 -30 -111 -46 l-71
-28 21 -38 20 -38 565 0 566 0 18 32 c10 17 14 35 9 40 -9 9 -583 259 -592
257 -3 0 -12 -3 -20 -6z"/>
</g>
</svg>
