<svg width="12" height="18" viewBox="0 0 12 18" fill="none" xmlns="http://www.w3.org/2000/svg">
<path d="M0.907934 8.33977L9.06541 0.808928C9.25408 0.634608 9.50594 0.538574 9.77449 0.538574C10.043 0.538574 10.2949 0.634608 10.4836 0.808928L11.0843 1.3634C11.4752 1.72469 11.4752 2.31191 11.0843 2.67265L4.23429 8.9966L11.0919 15.3276C11.2806 15.5019 11.3848 15.7343 11.3848 15.9821C11.3848 16.2301 11.2806 16.4625 11.0919 16.637L10.4912 17.1913C10.3024 17.3656 10.0506 17.4617 9.78209 17.4617C9.51354 17.4617 9.26168 17.3656 9.07301 17.1913L0.907934 9.65357C0.718815 9.4787 0.614941 9.24522 0.615537 8.99702C0.614941 8.74785 0.718815 8.51451 0.907934 8.33977Z" fill="white"/>
</svg>
