<svg width="12" height="18" viewBox="0 0 12 18" fill="none" xmlns="http://www.w3.org/2000/svg">
<path d="M11.0921 8.33977L2.93459 0.808928C2.74592 0.634608 2.49406 0.538574 2.22551 0.538574C1.95695 0.538574 1.70509 0.634608 1.51642 0.808928L0.91568 1.3634C0.524773 1.72469 0.524773 2.31191 0.91568 2.67265L7.76571 8.9966L0.908079 15.3276C0.719407 15.5019 0.615234 15.7343 0.615234 15.9821C0.615234 16.2301 0.719407 16.4625 0.908079 16.637L1.50882 17.1913C1.69764 17.3656 1.94935 17.4617 2.21791 17.4617C2.48646 17.4617 2.73832 17.3656 2.92699 17.1913L11.0921 9.65357C11.2812 9.4787 11.3851 9.24522 11.3845 8.99702C11.3851 8.74785 11.2812 8.51451 11.0921 8.33977Z" fill="white"/>
</svg>
