<svg width="34" height="34" viewBox="0 0 34 34" fill="none" xmlns="http://www.w3.org/2000/svg">
<path d="M28.6859 1.11075C29.849 -0.054398 31.737 -0.0543986 32.9001 1.11075C34.0604 2.27306 34.0604 4.15542 32.9001 5.31773L5.55471 32.7103C4.39156 33.8754 2.50361 33.8754 1.34047 32.7103C0.180162 31.548 0.180163 29.6656 1.34047 28.5033L28.6859 1.11075Z" fill="white"/>
<path d="M32.6595 28.6823C33.8198 29.8446 33.8198 31.7269 32.6595 32.8893C31.4964 34.0544 29.6084 34.0544 28.4453 32.8893L1.09988 5.49672C-0.0604365 4.33441 -0.0604392 2.45205 1.09987 1.28973C2.26301 0.12459 4.15096 0.12459 5.3141 1.28973L32.6595 28.6823Z" fill="white"/>
</svg>
