<svg width="14" height="22" viewBox="0 0 14 22" fill="none" xmlns="http://www.w3.org/2000/svg">
<path d="M13.6199 10.1416L3.01517 0.351461C2.76989 0.124845 2.44247 0 2.09335 0C1.74424 0 1.41682 0.124845 1.17154 0.351461L0.390579 1.07227C-0.1176 1.54195 -0.1176 2.30533 0.390579 2.7743L9.29562 10.9954L0.380698 19.2257C0.135424 19.4523 0 19.7544 0 20.0765C0 20.399 0.135424 20.7011 0.380698 20.9279L1.16166 21.6485C1.40713 21.8752 1.73436 22 2.08347 22C2.43259 22 2.76001 21.8752 3.00529 21.6485L13.6199 11.8495C13.8657 11.6222 14.0008 11.3186 14 10.996C14.0008 10.6721 13.8657 10.3687 13.6199 10.1416Z" fill="white"/>
</svg>
