<svg width="32" height="28" viewBox="0 0 32 28" fill="none" xmlns="http://www.w3.org/2000/svg">
<path d="M0.565215 13.4259L7.93867 16.1916L10.7926 25.4156C10.9753 26.0064 11.6941 26.2247 12.1712 25.8327L16.2813 22.4654C16.7121 22.1126 17.3258 22.0951 17.776 22.4235L25.1891 27.8324C25.6995 28.2052 26.4226 27.9242 26.5506 27.3043L31.9811 1.05262C32.1209 0.375563 31.4589 -0.189261 30.8174 0.0600803L0.556575 11.7919C-0.190199 12.0813 -0.183693 13.1439 0.565215 13.4259ZM10.3327 14.7193L24.7432 5.79976C25.0022 5.63993 25.2686 5.99186 25.0462 6.19918L13.1534 17.3091C12.7354 17.7002 12.4657 18.2235 12.3893 18.7916L11.9842 21.8087C11.9306 22.2116 11.3675 22.2516 11.2569 21.8617L9.69877 16.3598C9.52032 15.7323 9.78037 15.0619 10.3327 14.7193Z" fill="white"/>
</svg>
