<svg width="32" height="32" viewBox="0 0 32 32" fill="none" xmlns="http://www.w3.org/2000/svg">
<path d="M22.8792 1H9.12071C4.64288 1 1 4.64288 1 9.12071V22.8795C1 27.3571 4.64288 30.9999 9.12071 30.9999H22.8795C27.3571 30.9999 30.9999 27.3571 30.9999 22.8795V9.12071C30.9999 4.64288 27.3571 1 22.8792 1V1ZM16 24.2028C11.4768 24.2028 7.79709 20.5231 7.79709 16C7.79709 11.4768 11.4768 7.79709 16 7.79709C20.5231 7.79709 24.2028 11.4768 24.2028 16C24.2028 20.5231 20.5231 24.2028 16 24.2028V24.2028ZM24.399 9.7316C23.0623 9.7316 21.9751 8.64441 21.9751 7.30774C21.9751 5.97107 23.0623 4.88366 24.399 4.88366C25.7357 4.88366 26.8231 5.97107 26.8231 7.30774C26.8231 8.64441 25.7357 9.7316 24.399 9.7316Z" fill="white"/>
<path d="M15.9998 9.55579C12.4467 9.55579 9.55566 12.4466 9.55566 15.9999C9.55566 19.5531 12.4467 22.4441 15.9998 22.4441C19.5532 22.4441 22.444 19.5531 22.444 15.9999C22.444 12.4466 19.5532 9.55579 15.9998 9.55579Z" fill="white"/>
<path d="M24.399 6.64258C24.0323 6.64258 23.7339 6.94104 23.7339 7.30771C23.7339 7.67438 24.0323 7.97284 24.399 7.97284C24.7659 7.97284 25.0644 7.6746 25.0644 7.30771C25.0644 6.94081 24.7659 6.64258 24.399 6.64258Z" fill="white"/>
</svg>
