<svg width="28" height="29" viewBox="0 0 28 29" fill="none" xmlns="http://www.w3.org/2000/svg">
<g clip-path="url(#clip0_208_820)">
<path d="M17.5722 5.05914C16.8715 3.241 15.9908 1.70975 14.9786 0.535675C14.6462 0.512176 14.3117 0.5 13.9754 0.5C13.639 0.5 13.3044 0.512176 12.9723 0.535675C11.9599 1.70975 11.0791 3.24078 10.3787 5.05914C10.1524 5.64618 9.94907 6.25479 9.76855 6.88113H18.1823C18.0016 6.25479 17.7982 5.64618 17.5722 5.05914Z" fill="#C7B7E2"/>
<path d="M9.35745 20.4782H18.5943C18.9474 18.8372 19.1525 17.1004 19.2008 15.3203H8.75098C8.79926 17.1006 9.00433 18.8372 9.35745 20.4782Z" fill="#C7B7E2"/>
<path d="M18.5943 8.52173H9.35745C9.00433 10.1628 8.79926 11.8995 8.75098 13.6797H19.2008C19.1525 11.8993 18.9474 10.1628 18.5943 8.52173Z" fill="#C7B7E2"/>
<path d="M10.3784 23.9409C11.0791 25.759 11.9599 27.2903 12.972 28.4644C13.3044 28.4879 13.639 28.5 13.9754 28.5C14.3117 28.5 14.6462 28.4879 14.9786 28.4644C15.9908 27.2903 16.8715 25.7592 17.572 23.9409C17.7982 23.3539 18.0016 22.7452 18.1821 22.1189H9.76855C9.94907 22.7452 10.1524 23.3539 10.3784 23.9409Z" fill="#C7B7E2"/>
<path d="M20.2666 8.52179C20.5975 10.1599 20.7949 11.894 20.8412 13.6797H27.9508C27.847 11.8701 27.401 10.125 26.6422 8.52051C26.6343 8.52072 26.6266 8.52179 26.6187 8.52179H20.2666Z" fill="#C7B7E2"/>
<path d="M7.68445 20.4782C7.35333 18.8402 7.15594 17.106 7.10959 15.3203H0C0.103821 17.1299 0.549866 18.875 1.30865 20.4795C1.31656 20.4793 1.32425 20.4782 1.33215 20.4782H7.68445Z" fill="#C7B7E2"/>
<path d="M19.8822 22.1189C19.2714 24.3963 18.3904 26.4379 17.292 28.1063C19.7638 27.5086 22.0314 26.2433 23.8752 24.3995C24.5778 23.6969 25.1956 22.9324 25.7254 22.1189H19.8822Z" fill="#C7B7E2"/>
<path d="M8.06931 6.88123C8.68027 4.60379 9.56104 2.56219 10.6595 0.893799C8.18787 1.49152 5.92004 2.75681 4.07605 4.60059C3.37366 5.30319 2.75586 6.06775 2.22607 6.88123H8.06931Z" fill="#C7B7E2"/>
<path d="M8.06931 22.1189H2.22607C2.75586 22.9324 3.37366 23.6969 4.07605 24.3995C5.92004 26.2433 8.18765 27.5086 10.6593 28.1063C9.56104 26.4379 8.68027 24.3963 8.06931 22.1189Z" fill="#C7B7E2"/>
<path d="M19.8822 6.88123H25.7254C25.1956 6.06775 24.578 5.30319 23.8754 4.60059C22.0314 2.75681 19.7638 1.49152 17.292 0.893799C18.3904 2.56219 19.2714 4.60379 19.8822 6.88123Z" fill="#C7B7E2"/>
<path d="M20.8412 15.3203C20.7949 17.106 20.5977 18.8402 20.2666 20.4782H26.6187C26.6266 20.4782 26.6343 20.4793 26.6422 20.4795C27.401 18.875 27.847 17.1299 27.9508 15.3203H20.8412Z" fill="#C7B7E2"/>
<path d="M7.10959 13.6797C7.15594 11.894 7.35333 10.1599 7.68445 8.52179H1.33215C1.32425 8.52179 1.31656 8.52072 1.30865 8.52051C0.549866 10.125 0.103821 11.8701 0 13.6797H7.10959Z" fill="#C7B7E2"/>
</g>
<defs>
<clipPath id="clip0_208_820">
<rect width="28" height="28" fill="white" transform="translate(0 0.5)"/>
</clipPath>
</defs>
</svg>
